# xmcd CD database file
#
# Track frame offsets:
#	150
#	19108
#	32505
#	49528
#	67505
#	89308
#	110010
#	124098
#	137363
#	153850
#	176015
#	194563
#
# Disc length: 2794 seconds
#
# Revision: 0
# Processed by: cddbd v1.5.1PL0 Copyright (c) Steve Scherf et al.
# Submitted via: CDex 1.51
#
DISCID=900ae80c
DTITLE=WACK WACK RHYTHM BAND - SOUNDS OF FAR EAST
DYEAR=2005
DGENRE=World
TTITLE0=Bermuda Blowback
TTITLE1=The Dax
TTITLE2=Spin Me Right on 45
TTITLE3=Casa Bianca
TTITLE4=Younger Girl (with BOO)
TTITLE5=Midnight Roundabout
TTITLE6=Onimotsu-Konimotsu
TTITLE7=Let It Go (with TRILETS from DREAMLETS)
TTITLE8=Split Image
TTITLE9=Faraway
TTITLE10=Sgt. Antonio
TTITLE11=Expo '73 Avenue
EXTD=YEAR: 2005
EXTT0=
EXTT1=
EXTT2=
EXTT3=
EXTT4=
EXTT5=
EXTT6=
EXTT7=
EXTT8=
EXTT9=
EXTT10=
EXTT11=
PLAYORDER=
